<?xml version="1.0" encoding="utf-8"?>
<!-- Generator: Adobe Illustrator 27.0.0, SVG Export Plug-In . SVG Version: 6.00 Build 0)  -->
<svg version="1.1" id="Layer_1" xmlns="http://www.w3.org/2000/svg" xmlns:xlink="http://www.w3.org/1999/xlink" x="0px" y="0px"
	 viewBox="0 0 267.9 45.4" style="enable-background:new 0 0 267.9 45.4;" xml:space="preserve">
<style type="text/css">
	.st0{fill:#211747;}
	.st1{fill:#5D40FF;}
</style>
<g>
	<path class="st0" d="M77.2,5.9V33H74l-0.5-2.3c-1.8,1.7-4.3,2.8-7.1,2.8c-6,0-10.4-4.5-10.4-10.5c0-6,4.3-10.5,10.4-10.5
		c2.6,0,4.8,0.9,6.6,2.3v-9H77.2z M66.8,29.6c3.8,0,6.5-2.8,6.5-6.6c0-3.7-2.8-6.6-6.5-6.6c-3.8,0-6.5,2.8-6.5,6.6
		C60.3,26.8,63,29.6,66.8,29.6L66.8,29.6z"/>
	<path class="st0" d="M66.5,33.6C60.4,33.6,56,29.1,56,23c0-6.1,4.4-10.6,10.5-10.6c2.4,0,4.7,0.8,6.5,2.2V5.8h4.3v27.3H74l-0.5-2.2
		C71.6,32.6,69.1,33.6,66.5,33.6z M66.5,12.6c-6,0-10.3,4.4-10.3,10.4c0,6,4.3,10.4,10.3,10.4c2.7,0,5.2-1,7-2.7l0.1-0.1l0.5,2.4
		h2.9V6h-3.9v9.1L73,14.9C71.2,13.4,68.9,12.6,66.5,12.6z M66.8,29.7c-1.8,0-3.5-0.7-4.7-1.9c-1.2-1.2-1.9-2.9-1.9-4.8
		c0-3.9,2.8-6.7,6.6-6.7c3.8,0,6.6,2.9,6.6,6.7S70.6,29.7,66.8,29.7L66.8,29.7C66.8,29.7,66.8,29.7,66.8,29.7z M66.8,16.6
		c-3.7,0-6.4,2.7-6.4,6.5s2.7,6.5,6.4,6.5v0c3.7,0,6.4-2.8,6.4-6.5S70.5,16.6,66.8,16.6z"/>
	<path class="st0" d="M100.2,13L91,33.4c-2.3,5-4.2,6.8-8.3,6.8h-2v-3.7h1.7c2.6,0,3.5-0.8,4.9-4l0.4-0.9L79,13h4.5L89.9,27l6-13.9
		H100.2z"/>
	<path class="st0" d="M82.7,40.3h-2.1v-3.9h1.8c2.5,0,3.3-0.7,4.8-3.9l0.4-0.9l-8.7-18.6h4.7l0,0.1l6.3,13.7l5.9-13.8h4.6l-9.2,20.5
		C88.8,38.6,86.7,40.3,82.7,40.3z M80.8,40.1h1.9c3.9,0,5.9-1.6,8.2-6.7l9.1-20.2h-4.2l-6,14.1l-6.4-14.1h-4.3l8.7,18.4l-0.5,1
		c-1.6,3.5-2.6,4-5,4h-1.6V40.1z"/>
	<path class="st0" d="M112.6,12.6c4.7,0,7.6,3.5,7.6,8.4v12h-4.1V21.8c0-3.6-1.6-5.6-4.6-5.6c-3.1,0-5.4,2.5-5.4,6.1V33H102V13h2.9
		l0.8,2.8C107.2,13.8,109.7,12.6,112.6,12.6L112.6,12.6z"/>
	<path class="st0" d="M120.3,33.1H116V21.8c0-3.6-1.6-5.5-4.5-5.5c-3.1,0-5.3,2.4-5.3,6v10.8H102V12.9h3l0.8,2.7
		c1.6-2,4.1-3.1,6.9-3.1v0c4.6,0,7.7,3.4,7.7,8.5V33.1z M116.2,32.9h3.9V21c0-5-3-8.3-7.5-8.3l0,0c0,0,0,0,0,0
		c-2.8,0-5.3,1.2-6.8,3.2l-0.1,0.2l-0.8-2.9h-2.7v19.8h3.9V22.3c0-3.6,2.3-6.2,5.5-6.2c3.1,0,4.7,2,4.7,5.7V32.9z"/>
	<path class="st0" d="M144.4,13v20H141l-0.4-2.4c-1.8,1.8-4.3,2.9-7.2,2.9c-6,0-10.4-4.5-10.4-10.5c0-6,4.5-10.5,10.4-10.5
		c2.9,0,5.5,1.1,7.3,3l0.5-2.5L144.4,13z M140.2,23c0-3.8-2.8-6.6-6.5-6.6s-6.5,2.8-6.5,6.6c0,3.7,2.8,6.6,6.5,6.6
		S140.2,26.8,140.2,23z"/>
	<path class="st0" d="M133.4,33.6c-6,0-10.5-4.5-10.5-10.6c0-6,4.5-10.6,10.5-10.6c2.8,0,5.4,1,7.2,2.9l0.5-2.4l3.3,0v20.2H141
		l-0.4-2.3C138.7,32.6,136.2,33.6,133.4,33.6z M133.4,12.6c-5.9,0-10.3,4.5-10.3,10.4c0,5.9,4.4,10.4,10.3,10.4c2.8,0,5.3-1,7.2-2.9
		l0.1-0.1l0.4,2.5h3.1V13.1l-3,0l-0.5,2.6l-0.1-0.1C138.8,13.7,136.2,12.6,133.4,12.6z M133.7,29.7c-3.8,0-6.6-2.9-6.6-6.7
		s2.9-6.7,6.6-6.7c3.8,0,6.6,2.8,6.6,6.7S137.6,29.7,133.7,29.7z M133.7,16.5c-3.7,0-6.4,2.8-6.4,6.5s2.8,6.5,6.4,6.5
		c3.7,0,6.4-2.7,6.4-6.5S137.4,16.5,133.7,16.5z"/>
	<path class="st0" d="M171,12.6c4.2,0,7.1,3.2,7.1,7.7V33h-4.1V21.3c0-3.2-1.4-5.1-3.9-5.1c-2.6,0-4.7,2.4-4.7,5.8V33h-4V21.3
		c0-3.2-1.4-5.1-3.9-5.1c-2.7,0-4.7,2.4-4.7,5.8V33h-4.1V13h2.9l0.7,2.6c1.5-1.9,3.8-3,6.2-3c2.7,0,4.9,1.3,6,3.5
		C165.9,13.9,168.4,12.6,171,12.6L171,12.6z"/>
	<path class="st0" d="M178.1,33.1h-4.3V21.3c0-3.2-1.4-5-3.8-5c-2.7,0-4.6,2.4-4.6,5.7v11h-4.2V21.3c0-3.2-1.3-5-3.8-5
		c-2.6,0-4.6,2.5-4.6,5.7v11h-4.3V12.9h3.1l0.7,2.5c1.5-1.8,3.8-2.9,6.2-2.9c2.6,0,4.8,1.2,6,3.4c1.5-2.1,3.9-3.4,6.5-3.4h0
		c4.2,0,7.2,3.2,7.2,7.8V33.1z M174,32.9h3.9V20.3c0-4.5-2.9-7.6-7-7.6c-2.6,0-5,1.3-6.4,3.5l-0.1,0.1l-0.1-0.1
		c-1.2-2.2-3.3-3.4-5.9-3.4c-2.3,0-4.6,1.1-6.1,3l-0.1,0.1l-0.7-2.7h-2.7v19.8h3.9V22.1c0-3.4,2.1-5.9,4.8-5.9c2.5,0,4,1.9,4,5.2
		v11.6h3.8V22.1c0-3.4,2.1-5.9,4.8-5.9c2.5,0,4,1.9,4,5.2V32.9z"/>
	<path class="st0" d="M191.5,33.5c-6.1,0-10.7-4.5-10.7-10.5c0-6,4.6-10.5,10.7-10.5c6.1,0,10.7,4.5,10.7,10.5
		C202.2,29,197.6,33.5,191.5,33.5L191.5,33.5z M198,23c0-3.8-2.7-6.6-6.5-6.6c-3.8,0-6.5,2.7-6.5,6.6c0,3.8,2.7,6.6,6.5,6.6
		C195.3,29.6,198,26.8,198,23z"/>
	<path class="st0" d="M191.5,33.6L191.5,33.6c-6.1,0-10.8-4.5-10.8-10.6c0-6,4.6-10.6,10.8-10.6c6.1,0,10.8,4.5,10.8,10.6
		S197.7,33.6,191.5,33.6z M191.5,12.6c-2.9,0-5.6,1-7.6,2.9c-1.9,1.9-3,4.5-3,7.4c0,5.9,4.6,10.4,10.6,10.4l0,0c0,0,0,0,0,0
		c2.9,0,5.6-1.1,7.6-3c2-1.9,3-4.5,3-7.4C202.1,17.1,197.6,12.6,191.5,12.6z M191.5,29.7c-3.8,0-6.6-2.8-6.6-6.7
		c0-3.9,2.8-6.7,6.6-6.7c3.8,0,6.6,2.8,6.6,6.7C198.1,26.9,195.4,29.7,191.5,29.7z M191.5,16.6c-3.7,0-6.4,2.7-6.4,6.5
		c0,3.7,2.7,6.5,6.4,6.5c3.7,0,6.4-2.7,6.4-6.5C197.9,19.3,195.2,16.6,191.5,16.6z"/>
	<path class="st0" d="M215.8,12.6c4.7,0,7.6,3.5,7.6,8.4v12h-4.1V21.8c0-3.6-1.6-5.6-4.6-5.6c-3.1,0-5.4,2.5-5.4,6.1V33h-4.1V13h2.9
		l0.8,2.8C210.4,13.8,212.8,12.6,215.8,12.6L215.8,12.6z"/>
	<path class="st0" d="M223.4,33.1h-4.3V21.8c0-3.6-1.6-5.5-4.5-5.5c-3.1,0-5.3,2.4-5.3,6v10.8h-4.3V12.9h3l0.8,2.7
		c1.6-2,4.1-3.1,6.9-3.1v0c4.6,0,7.7,3.4,7.7,8.5V33.1z M219.3,32.9h3.9V21c0-5-3-8.3-7.5-8.3l0,0c0,0,0,0,0,0
		c-2.8,0-5.3,1.2-6.8,3.2l-0.1,0.2l-0.8-2.9h-2.7v19.8h3.9V22.3c0-3.6,2.3-6.2,5.5-6.2c3.1,0,4.7,2,4.7,5.7V32.9z"/>
	<path class="st0" d="M246.6,23.1c0,0.4,0,0.9-0.1,1.3h-16.2c0.5,3.2,2.8,5.2,6.1,5.2c2.4,0,4.3-1.1,5.4-2.9h4.3
		c-1.6,4.2-5.2,6.8-9.7,6.8c-5.8,0-10.3-4.5-10.3-10.5c0-6,4.4-10.5,10.3-10.5C242.5,12.5,246.6,17.2,246.6,23.1L246.6,23.1z
		 M230.4,21.1h12.1c-0.7-3-3-4.8-6.1-4.8C233.3,16.2,231.1,18.1,230.4,21.1z"/>
	<path class="st0" d="M236.4,33.6C230.5,33.6,226,29,226,23s4.5-10.6,10.4-10.6c6,0,10.3,4.5,10.3,10.6l0,0.1c0,0.5,0,0.9-0.1,1.3
		l0,0.1h-16.2c0.5,3.1,2.8,5,6,5c2.3,0,4.2-1,5.3-2.9l0,0h4.5l0,0.1C244.6,31,240.9,33.6,236.4,33.6z M236.4,12.6
		c-5.8,0-10.2,4.5-10.2,10.4s4.4,10.4,10.2,10.4c4.4,0,7.9-2.5,9.6-6.6h-4.1c-1.1,1.9-3.1,2.9-5.4,2.9c-3.3,0-5.7-2-6.2-5.3l0-0.1
		h16.2c0-0.4,0.1-0.8,0.1-1.3l0-0.1C246.4,17,242.2,12.6,236.4,12.6z M242.6,21.2h-12.3l0-0.1c0.7-3,3-4.9,6.1-4.9
		c3.1,0,5.4,1.8,6.2,4.9L242.6,21.2z M230.5,21h11.8c-0.8-2.9-3-4.6-5.9-4.6C233.4,16.3,231.2,18.1,230.5,21z"/>
	<path class="st0" d="M267.2,13L258,33.4c-2.3,5-4.2,6.8-8.3,6.8h-2v-3.7h1.7c2.6,0,3.5-0.8,4.9-4l0.4-0.9L246.1,13h4.5l6.3,13.9
		l6-13.9H267.2z"/>
	<path class="st0" d="M249.7,40.3h-2.1v-3.9h1.8c2.5,0,3.3-0.7,4.8-3.9l0.4-0.9l-8.7-18.6h4.7l0,0.1l6.3,13.7l5.9-13.8h4.6
		l-9.2,20.5C255.8,38.6,253.8,40.3,249.7,40.3z M247.8,40.1h1.9c3.9,0,5.9-1.6,8.2-6.7l9.1-20.2h-4.2l-6,14.1l-6.4-14.1h-4.3
		l8.7,18.4l-0.5,1c-1.6,3.5-2.6,4-5,4h-1.6V40.1z"/>
	<path class="st1" d="M34.1,5.1v17.6c0,0.3,0,0.5,0,0.8c-0.4,6.4-5.5,11.1-12.1,11.1c-0.1,0-0.3,0-0.4,0c-4.5-0.2-7.8-3.6-7.8-8
		c0-2.4,1-4.5,2.5-5.9c-0.2,0.6-0.3,1.3-0.3,2.1c0,3.6,2.5,6.2,6,6.2c3.4,0,5.8-2.4,6-5.9h0L28,12.3l0-3.6V2.2
		c-1.9-0.6-4-0.9-6.1-0.9c-11.8,0-21.4,9.6-21.4,21.4c0,11.8,9.6,21.4,21.4,21.4s21.4-9.6,21.4-21.4C43.4,15.4,39.7,8.9,34.1,5.1z
		 M9.8,22.7c0-6.8,5.2-11.9,12.1-11.9c1.4,0,2.8,0.2,4.1,0.6v5.8c-1.3-0.5-2.6-0.8-4.1-0.8c0,0,0,0,0,0c0,0,0,0,0,0
		c-5.8,0-10.2,4.3-10.2,10c0,1.3,0.2,2.5,0.6,3.6C10.8,28.1,9.8,25.6,9.8,22.7z"/>
</g>
</svg>
