<svg version="1.1" id="Layer_1" xmlns="http://www.w3.org/2000/svg" xmlns:xlink="http://www.w3.org/1999/xlink" x="0px" y="0px" viewBox="0 0 425.2 58.8" style="enable-background:new 0 0 425.2 58.8;" xml:space="preserve">
<style type="text/css">
	.st0{fill:#DA3B96;}
	.st1{fill:#DA3B96;}
</style>
<g>
	<path class="st0" d="M34.6,12.8c-4.7,0-8.6,2-10.8,5.6c-2.3-3.7-6.1-5.6-10.8-5.6C5.6,12.8,0,17.2,0,27v17.7h7.5V26.9
		c0-5.1,2.6-7.2,6.3-7.2c3.6,0,6.3,2.1,6.3,7.2v17.7h7.5V26.9c0-5,2.6-7.2,6.2-7.2c3.7,0,6.3,2.1,6.3,7.2v17.7h7.5V26.9
		C47.6,17.2,41.9,12.8,34.6,12.8z"></path>
	<path class="st0" d="M68,12.8c-9.9,0-16.8,6.8-16.8,16.7c0,10.6,7.9,16,15.5,16c4.9,0,9.1-2.3,11-6.9v6.1h6.9V29.4
		C84.6,19.4,77.8,12.8,68,12.8z M68,38.5c-5.5,0-9.2-3.9-9.2-9.4s3.7-9.4,9.2-9.4s9.1,3.9,9.1,9.4S73.4,38.5,68,38.5z"></path>
	<path class="st0" d="M103.1,12.8c-8.1,0-13.7,4.5-13.7,13.8v18.1H97V26.6c0-5,2.5-6.9,6.2-6.9s6.2,1.8,6.2,6.9v0.3h7.4v-0.2
		C116.7,17.2,111.3,12.8,103.1,12.8z"></path>
	<path class="st0" d="M138.6,12.8c-4.5,0-8.2,1.9-10.4,5.3V0h-7.5v28.9c0,10.1,6.8,16.6,16.6,16.6c9.9,0,16.8-6.8,16.8-16.7
		C154.1,18.2,146.2,12.8,138.6,12.8z M137.4,38.5c-5.5,0-9.1-3.9-9.1-9.4s3.7-9.4,9.1-9.4c5.5,0,9.2,3.9,9.2,9.4
		S142.9,38.5,137.4,38.5z"></path>
	<rect class="st0" x="158.8" y="0" width="7.5" height="44.7"></rect>
	<path class="st0" d="M189.1,12.8c-9.8,0-16.7,6.9-16.7,16.4s6.9,16.4,16.7,16.4c7.4,0,13-3.8,15.4-9.8h-8c-1.6,2-4,3-7.4,3
		c-4.4,0-7.9-2.4-8.9-6.9h25.5v-2.6C205.7,19.7,198.9,12.8,189.1,12.8z M180.4,25.8c1.2-4.1,4.5-6.2,8.7-6.2c4.1,0,7.5,2.1,8.7,6.2
		H180.4z"></path>
	<path class="st0" d="M256.8,12.8c-4.7,0-8.6,2-10.8,5.6c-2.3-3.7-6.1-5.6-10.8-5.6c-7.4,0-13,4.4-13,14.2v17.7h7.5V26.9
		c0-5.1,2.6-7.2,6.3-7.2c3.6,0,6.3,2.1,6.3,7.2v17.7h7.5V26.9c0-5,2.6-7.2,6.2-7.2c3.7,0,6.3,2.1,6.3,7.2v17.7h7.5V26.9
		C269.9,17.2,264.2,12.8,256.8,12.8z"></path>
	<path class="st0" d="M290.3,12.8c-9.8,0-16.7,6.9-16.7,16.4s6.9,16.4,16.7,16.4c9.8,0,16.7-6.9,16.7-16.4S300.1,12.8,290.3,12.8z
		 M290.3,38.5c-5.5,0-9.2-3.9-9.2-9.4s3.7-9.4,9.2-9.4s9.1,3.9,9.1,9.4S295.7,38.5,290.3,38.5z"></path>
	<path class="st0" d="M325.6,12.8c-8.1,0-13.7,4.5-13.7,13.8v18.1h7.5V26.6c0-5,2.5-6.9,6.2-6.9s6.2,1.8,6.2,6.9v18.1h7.4v-18
		C339.2,17.2,333.7,12.8,325.6,12.8z"></path>
	<path class="st0" d="M359.6,12.8c-9.8,0-16.7,6.9-16.7,16.4s6.9,16.4,16.7,16.4c7.4,0,13-3.8,15.4-9.8h-8c-1.6,2-4,3-7.4,3
		c-4.4,0-7.9-2.4-8.9-6.9h25.5v-2.6C376.2,19.7,369.4,12.8,359.6,12.8z M350.9,25.8c1.2-4.1,4.5-6.2,8.7-6.2c4.1,0,7.5,2.1,8.7,6.2
		H350.9z"></path>
	<path class="st0" d="M403.4,13.6v15.8c0,5.8-3.3,8.7-7.9,8.7c-4.7,0-7.9-2.8-7.9-8.7V13.6h-7.5v15.8c0,11.1,6.8,15.7,14,15.7
		c4.1,0,7.4-1.8,9.3-5.2v3.9c0,6-2.9,8.5-8,8.5c-3.8,0-6.2-1.3-7.5-4.2h-7.5c1.8,7.4,7.7,10.7,15,10.7c8.6,0,15.5-4.3,15.5-15.2v-30
		C410.9,13.6,403.4,13.6,403.4,13.6z"></path>
</g>
<path class="st1" d="M415.3,40.5c0-2.8,2.1-5,5-5c2.8,0,5,2.1,5,5c0,2.8-2.1,5-5,5S415.3,43.4,415.3,40.5"></path>
</svg>