<svg version="1.1" id="Layer_1" xmlns="http://www.w3.org/2000/svg" xmlns:xlink="http://www.w3.org/1999/xlink" x="0px" y="0px" viewBox="0 0 283.5 137.8" style="enable-background:new 0 0 283.5 137.8;" xml:space="preserve">
<style type="text/css">
	.st1{fill:#DA3B96;}
	.st0{fill:#DA3B96;}
	.st2{fill:#003298;}
	.st3{fill:#1D77D4;}
	.st4{fill:#752A7A;}
	.st5{fill:#DF98BF;}
	.st6{fill:#FFA6A6;}
	.st7{fill:#E5E0D9;}
	.st8{fill:#FFFFFF;}
	.st9{filter:url(#Adobe_OpacityMaskFilter);}
	.st10{fill:url(#SVGID_00000097470596339098505760000009280017276261066671_);}
	.st11{mask:url(#SVGID_1_);}
	.st12{clip-path:url(#SVGID_00000086668859297250705750000002043444807337997490_);fill:#DA3B96;}
	.st13{opacity:0.8;}
	.st14{filter:url(#Adobe_OpacityMaskFilter_00000182505244742974112240000015803675707497409470_);}
	
		.st15{clip-path:url(#SVGID_00000116923688139897858950000011086235923613735329_);fill:url(#SVGID_00000089534200407416035450000000437318600034927505_);}
	
		.st16{clip-path:url(#SVGID_00000116923688139897858950000011086235923613735329_);mask:url(#SVGID_00000052065033697470992620000015101578757194337440_);}
	.st17{clip-path:url(#SVGID_00000073687412755495038370000006008012968184196280_);fill:#3B2066;}
	.st18{filter:url(#Adobe_OpacityMaskFilter_00000096030351796725391620000004760278885637527978_);}
	.st19{fill:url(#SVGID_00000016062711900951518800000014052170039994240384_);}
	.st20{mask:url(#SVGID_00000173842959219522244290000003726469323167831481_);}
	.st21{clip-path:url(#SVGID_00000144332071419873773380000003619733700709793188_);fill:#DA3B96;}
	.st22{filter:url(#Adobe_OpacityMaskFilter_00000090290315515190252310000000548409388281629103_);}
	.st23{fill:url(#SVGID_00000134215131304645866540000008864895148657017004_);}
	.st24{mask:url(#SVGID_00000130640955691822453620000012761394891022347399_);}
	.st25{clip-path:url(#SVGID_00000145742908911004392380000004587059501596417717_);fill:#DA3B96;}
	.st26{clip-path:url(#SVGID_00000116208566259203913240000000197281281538630323_);}
	.st27{clip-path:url(#SVGID_00000096761088080259380290000013024130914395006366_);fill:#DA3B96;}
	.st28{opacity:0.8;clip-path:url(#SVGID_00000114055711294546166660000000772469595581956246_);}
	.st29{clip-path:url(#SVGID_00000167377645581619521350000012484839066038498458_);}
</style>
<g>
	<g>
		<path class="st0" d="M47.6,17.6c-6.5,0-11.8,2.7-14.8,7.7c-3.1-5-8.4-7.7-14.8-7.7c-10.2,0-18,6.1-18,19.5v24.5h10.3V37.1
			c0-7,3.6-9.9,8.7-9.9c4.9,0,8.7,3,8.7,9.9v24.5H38V37.1c0-6.9,3.6-9.9,8.6-9.9c5,0,8.7,2.9,8.7,9.9v24.5h10.3V37.1
			C65.6,23.7,57.8,17.6,47.6,17.6z"></path>
		<path class="st0" d="M92.3,62.7c6.8,0,12.6-3.2,15.2-9.5v8.4h9.5V40.5c0-13.8-9.4-22.9-22.8-22.9c-13.6,0-23.2,9.4-23.2,23
			C70.9,55.3,81.9,62.7,92.3,62.7z M94,27.2c7.5,0,12.6,5.4,12.6,12.9c0,7.5-5,12.9-12.6,12.9c-7.5,0-12.7-5.4-12.7-12.9
			C81.4,32.6,86.5,27.2,94,27.2z"></path>
		<path class="st0" d="M133.2,36.7c0-6.9,3.5-9.5,8.5-9.5c5,0,8.5,2.5,8.5,9.5v0.4h10.2v-0.3c0-13.1-7.5-19.3-18.7-19.3
			c-11.2,0-18.8,6.2-18.8,19.1v24.9h10.3V36.7z"></path>
		<path class="st0" d="M188.8,62.7c13.6,0,23.2-9.4,23.2-23c0-14.7-10.9-22.1-21.3-22.1c-6.2,0-11.3,2.6-14.3,7.4V0H166v39.8
			C166,53.7,175.4,62.7,188.8,62.7z M188.9,27.2c7.5,0,12.7,5.4,12.7,12.9c0,7.5-5.1,12.9-12.7,12.9c-7.5,0-12.6-5.4-12.6-12.9
			C176.3,32.6,181.4,27.2,188.9,27.2z"></path>
		<rect x="219.3" y="0" class="st0" width="10.3" height="61.6"></rect>
		<path class="st0" d="M283.1,40.2c0-13-9.4-22.6-22.9-22.6c-13.5,0-23.1,9.5-23.1,22.6c0,13,9.5,22.6,23.1,22.6
			c10.2,0,18-5.3,21.2-13.5h-11c-2.2,2.8-5.6,4.1-10.2,4.1c-6.1,0-10.8-3.3-12.2-9.5h35.1V40.2z M248.2,35.6c1.6-5.6,6.2-8.6,12-8.6
			c5.6,0,10.3,2.9,12,8.6H248.2z"></path>
		<path class="st0" d="M47.6,74.3c-6.5,0-11.8,2.7-14.8,7.7c-3.1-5-8.4-7.7-14.8-7.7c-10.2,0-18,6.1-18,19.5v24.5h10.3V93.9
			c0-7,3.6-9.9,8.7-9.9c4.9,0,8.7,3,8.7,9.9v24.5H38V93.9c0-6.9,3.6-9.9,8.6-9.9c5,0,8.7,2.9,8.7,9.9v24.5h10.3V93.9
			C65.6,80.4,57.8,74.3,47.6,74.3z"></path>
		<path class="st0" d="M94,74.3c-13.5,0-23.1,9.5-23.1,22.6s9.5,22.6,23.1,22.6c13.5,0,23.1-9.5,23.1-22.6S107.6,74.3,94,74.3z
			 M94,109.8c-7.5,0-12.7-5.4-12.7-12.9C81.4,89.4,86.5,84,94,84c7.5,0,12.6,5.4,12.6,12.9C106.6,104.5,101.6,109.8,94,109.8z"></path>
		<path class="st0" d="M141.9,74.3c-11.2,0-18.8,6.2-18.8,19.1v24.9h10.3V93.4c0-6.9,3.5-9.5,8.5-9.5c5,0,8.5,2.5,8.5,9.5v24.9h10.2
			V93.6C160.6,80.5,153.1,74.3,141.9,74.3z"></path>
		<path class="st0" d="M189.6,74.3c-13.5,0-23.1,9.5-23.1,22.6s9.5,22.6,23.1,22.6c10.2,0,18-5.3,21.2-13.5h-11
			c-2.2,2.8-5.6,4.1-10.2,4.1c-6.1,0-10.8-3.3-12.2-9.5h35.1v-3.6C212.5,83.9,203.1,74.3,189.6,74.3z M177.6,92.3
			c1.6-5.6,6.2-8.6,12-8.6c5.6,0,10.3,2.9,12,8.6H177.6z"></path>
		<path class="st0" d="M251.3,97.3c0,8-4.5,12.1-10.8,12.1c-6.5,0-10.8-3.9-10.8-12.1V75.5h-10.3v21.8c0,15.3,9.4,21.7,19.3,21.7
			c5.6,0,10.2-2.5,12.8-7.2v5.4c0,8.3-4,11.7-11,11.7c-5.2,0-8.6-1.8-10.3-5.8h-10.3c2.4,10.2,10.7,14.8,20.7,14.8
			c11.9,0,21.3-6,21.3-20.9V75.5h-10.3V97.3z"></path>
	</g>
	<path class="st1" d="M269.8,112.6c0-3.9,3-6.9,6.9-6.9c3.9,0,6.9,3,6.9,6.9c0,3.9-3,6.9-6.9,6.9
		C272.7,119.5,269.8,116.5,269.8,112.6"></path>
</g>
</svg>