<svg id="Layer_1" data-name="Layer 1" xmlns="http://www.w3.org/2000/svg" viewBox="0 0 1057.352 170.079">
  <defs>
  </defs>
  <path class="cls-1 circle" stroke-width="0px" fill="#3abcff" d="M1030.704,116.349c7.366,0,13.649,2.6,18.849,7.799,5.2,5.2,7.799,11.558,7.799,19.065,0,7.366-2.6,13.685-7.799,18.957-5.2,5.272-11.483,7.908-18.849,7.908s-13.649-2.636-18.849-7.908c-5.2-5.272-7.799-11.591-7.799-18.957,0-7.507,2.6-13.866,7.799-19.065s11.483-7.799,18.849-7.799Z"></path>
  <g>
    <path class="cls-2" stroke-width="0px" fill="#461e64" d="M101.475,85.996C101.475,36.84,135.756,1.913,182.648,1.913c51.743,0,83.436,40.101,76.969,90.551h-122.567c2.264,30.399,20.697,47.863,46.892,47.863,20.697,0,34.28-10.025,38.484-25.549h35.574c-5.822,32.663-33.634,55.3-73.411,55.3-49.803,0-83.113-34.926-83.113-84.083ZM223.073,65.622c-.323-21.667-16.817-35.25-40.425-35.25-22.961,0-38.484,11.965-43.658,35.25h84.083Z"></path>
    <path class="cls-2" stroke-width="0px" fill="#461e64" d="M535.187,59.935v106.722h-35.25v-98.96c0-21.991-11.643-35.574-31.046-35.574-25.872,0-41.395,24.255-41.395,54.331v80.203h-35.25v-98.96c0-21.991-11.319-35.574-31.046-35.574-25.871,0-41.395,24.255-41.395,54.331v80.203h-35.25V3.663h35.25v24.902c9.378-15.199,28.136-27.488,51.743-27.488,24.255,0,43.658,12.612,49.803,30.723,12.289-18.11,32.663-30.723,55.301-30.723,34.603,0,58.535,22.961,58.535,58.858Z"></path>
    <path class="cls-2" stroke-width="0px" fill="#461e64" d="M560.571,122.863c0-32.34,22.315-49.156,72.764-54.654l32.987-3.234v-4.204c0-19.081-13.583-30.4-34.28-30.4-19.404,0-32.34,10.349-34.927,29.429h-35.574c4.528-32.016,30.399-57.888,70.5-57.888,40.748,0,69.853,22.961,69.853,63.062v102.516h-35.573v-23.608c-6.791,14.229-26.842,26.195-48.833,26.195-34.603,0-56.918-19.081-56.918-47.215ZM623.31,141.943c25.872,0,43.012-20.374,43.012-46.245v-4.528l-31.369,3.881c-27.489,3.233-39.131,10.025-39.131,26.195,0,12.936,10.672,20.697,27.489,20.697Z"></path>
    <path class="cls-2" stroke-width="0px" fill="#461e64" d="M836.015,122.073c0-32.34,22.315-49.156,72.764-54.654l32.987-3.234v-4.204c0-19.081-13.583-30.4-34.28-30.4-19.404,0-32.34,10.349-34.927,29.429h-35.574c4.528-32.016,30.399-57.888,70.5-57.888,40.748,0,69.853,22.961,69.853,63.062v102.516h-35.573v-23.608c-6.791,14.229-26.842,26.195-48.833,26.195-34.603,0-56.918-19.081-56.918-47.215ZM898.754,141.153c25.872,0,43.012-20.374,43.012-46.245v-4.528l-31.369,3.881c-27.489,3.233-39.131,10.025-39.131,26.195,0,12.936,10.672,20.697,27.489,20.697Z"></path>
    <path class="cls-2" stroke-width="0px" fill="#461e64" d="M0,3.573h33.687v25.012c3.476-4.986,12.539-16.549,28.942-23.425C77.12-.915,90.013-.26,96.068.438v32.363c-2.684-.061-6.74.039-11.527.965-23.109,4.471-44.756,24.622-50.424,47.52-2.331,9.419-2.214,20.26-1.973,39.49.052,4.196,0,45.853,0,45.853l-32.145.027V3.573Z"></path>
    <path class="cls-2" stroke-width="0px" fill="#461e64" d="M728.096,3.573h33.687v25.012c3.476-4.986,12.539-16.549,28.942-23.425,14.491-6.075,27.384-5.42,33.438-4.722v32.363c-2.684-.061-6.74.039-11.527.965-23.109,4.471-44.756,24.622-50.424,47.52-2.331,9.419-2.214,20.26-1.973,39.49.052,4.196,0,45.853,0,45.853l-32.145.027V3.573Z"></path>
  </g>
</svg>